<?xml version="1.0" standalone="no"?><svg xmlns="http://www.w3.org/2000/svg" viewBox="0 0 1440 320"><path fill="#0a3d62" fill-opacity="1" d="M0,128L24,122.7C48,117,96,107,144,138.7C192,171,240,245,288,240C336,235,384,149,432,112C480,75,528,85,576,90.7C624,96,672,96,720,117.3C768,139,816,181,864,186.7C912,192,960,160,1008,154.7C1056,149,1104,171,1152,181.3C1200,192,1248,192,1296,186.7C1344,181,1392,171,1416,165.3L1440,160L1440,0L1416,0C1392,0,1344,0,1296,0C1248,0,1200,0,1152,0C1104,0,1056,0,1008,0C960,0,912,0,864,0C816,0,768,0,720,0C672,0,624,0,576,0C528,0,480,0,432,0C384,0,336,0,288,0C240,0,192,0,144,0C96,0,48,0,24,0L0,0Z"></path></svg>